<mxfile host="app.diagrams.net" agent="Mozilla/5.0 (Windows NT 10.0; Win64; x64) AppleWebKit/537.36 (KHTML, like Gecko) Chrome/131.0.0.0 Safari/537.36" version="25.0.3">
  <diagram name="Page-1" id="zluFdUMJBnVnEZamUht5">
    <mxGraphModel dx="1432" dy="878" grid="1" gridSize="10" guides="1" tooltips="1" connect="1" arrows="1" fold="1" page="1" pageScale="1" pageWidth="850" pageHeight="1100" math="0" shadow="0">
      <root>
        <mxCell id="0" />
        <mxCell id="1" parent="0" />
        <mxCell id="ghVTSAfvSZ-q4KwoJEbG-40" value="" style="rounded=0;whiteSpace=wrap;html=1;fillColor=#e1d5e7;strokeColor=#9673a6;" parent="1" vertex="1">
          <mxGeometry x="240" y="190" width="160" height="700" as="geometry" />
        </mxCell>
        <mxCell id="ghVTSAfvSZ-q4KwoJEbG-30" value="" style="rounded=0;whiteSpace=wrap;html=1;fillColor=#ffe6cc;strokeColor=#d79b00;" parent="1" vertex="1">
          <mxGeometry x="520" y="510" width="155" height="200" as="geometry" />
        </mxCell>
        <mxCell id="ghVTSAfvSZ-q4KwoJEbG-29" value="" style="rounded=0;whiteSpace=wrap;html=1;fillColor=#d5e8d4;strokeColor=#82b366;" parent="1" vertex="1">
          <mxGeometry x="522.5" y="350" width="152.5" height="140" as="geometry" />
        </mxCell>
        <mxCell id="ghVTSAfvSZ-q4KwoJEbG-28" value="" style="rounded=0;whiteSpace=wrap;html=1;fillColor=#dae8fc;strokeColor=#6c8ebf;" parent="1" vertex="1">
          <mxGeometry x="522.5" y="180" width="152.5" height="140" as="geometry" />
        </mxCell>
        <mxCell id="ghVTSAfvSZ-q4KwoJEbG-31" style="edgeStyle=orthogonalEdgeStyle;rounded=0;orthogonalLoop=1;jettySize=auto;html=1;entryX=0;entryY=0.5;entryDx=0;entryDy=0;" parent="1" source="ghVTSAfvSZ-q4KwoJEbG-1" target="ghVTSAfvSZ-q4KwoJEbG-28" edge="1">
          <mxGeometry relative="1" as="geometry" />
        </mxCell>
        <mxCell id="ghVTSAfvSZ-q4KwoJEbG-1" value="1. chef" style="rounded=0;whiteSpace=wrap;html=1;" parent="1" vertex="1">
          <mxGeometry x="260" y="230" width="120" height="60" as="geometry" />
        </mxCell>
        <mxCell id="ghVTSAfvSZ-q4KwoJEbG-32" style="edgeStyle=orthogonalEdgeStyle;rounded=0;orthogonalLoop=1;jettySize=auto;html=1;entryX=0;entryY=0.5;entryDx=0;entryDy=0;" parent="1" source="ghVTSAfvSZ-q4KwoJEbG-2" target="ghVTSAfvSZ-q4KwoJEbG-29" edge="1">
          <mxGeometry relative="1" as="geometry" />
        </mxCell>
        <mxCell id="ghVTSAfvSZ-q4KwoJEbG-2" value="2. cashier" style="rounded=0;whiteSpace=wrap;html=1;" parent="1" vertex="1">
          <mxGeometry x="260" y="340" width="120" height="60" as="geometry" />
        </mxCell>
        <mxCell id="ghVTSAfvSZ-q4KwoJEbG-33" style="edgeStyle=orthogonalEdgeStyle;rounded=0;orthogonalLoop=1;jettySize=auto;html=1;entryX=0;entryY=0.5;entryDx=0;entryDy=0;" parent="1" source="ghVTSAfvSZ-q4KwoJEbG-3" target="ghVTSAfvSZ-q4KwoJEbG-30" edge="1">
          <mxGeometry relative="1" as="geometry">
            <Array as="points">
              <mxPoint x="460" y="480" />
              <mxPoint x="460" y="610" />
            </Array>
          </mxGeometry>
        </mxCell>
        <mxCell id="ghVTSAfvSZ-q4KwoJEbG-3" value="3. stock" style="rounded=0;whiteSpace=wrap;html=1;" parent="1" vertex="1">
          <mxGeometry x="260" y="450" width="120" height="60" as="geometry" />
        </mxCell>
        <mxCell id="ghVTSAfvSZ-q4KwoJEbG-51" style="edgeStyle=orthogonalEdgeStyle;rounded=0;orthogonalLoop=1;jettySize=auto;html=1;entryX=0;entryY=0.5;entryDx=0;entryDy=0;" parent="1" source="ghVTSAfvSZ-q4KwoJEbG-4" target="ghVTSAfvSZ-q4KwoJEbG-21" edge="1">
          <mxGeometry relative="1" as="geometry">
            <Array as="points">
              <mxPoint x="440" y="600" />
              <mxPoint x="440" y="770" />
            </Array>
          </mxGeometry>
        </mxCell>
        <mxCell id="ghVTSAfvSZ-q4KwoJEbG-4" value="4. save" style="rounded=0;whiteSpace=wrap;html=1;" parent="1" vertex="1">
          <mxGeometry x="260" y="570" width="120" height="60" as="geometry" />
        </mxCell>
        <mxCell id="ghVTSAfvSZ-q4KwoJEbG-35" style="edgeStyle=orthogonalEdgeStyle;rounded=0;orthogonalLoop=1;jettySize=auto;html=1;entryX=0;entryY=0.5;entryDx=0;entryDy=0;" parent="1" source="ghVTSAfvSZ-q4KwoJEbG-5" target="ghVTSAfvSZ-q4KwoJEbG-25" edge="1">
          <mxGeometry relative="1" as="geometry">
            <Array as="points">
              <mxPoint x="420" y="720" />
              <mxPoint x="420" y="860" />
            </Array>
          </mxGeometry>
        </mxCell>
        <mxCell id="ghVTSAfvSZ-q4KwoJEbG-5" value="5. load" style="rounded=0;whiteSpace=wrap;html=1;" parent="1" vertex="1">
          <mxGeometry x="260" y="690" width="120" height="60" as="geometry" />
        </mxCell>
        <mxCell id="ghVTSAfvSZ-q4KwoJEbG-6" value="0.Back" style="rounded=0;whiteSpace=wrap;html=1;" parent="1" vertex="1">
          <mxGeometry x="260" y="810" width="120" height="60" as="geometry" />
        </mxCell>
        <mxCell id="ghVTSAfvSZ-q4KwoJEbG-7" value="1. cook" style="rounded=0;whiteSpace=wrap;html=1;" parent="1" vertex="1">
          <mxGeometry x="537.5" y="210" width="120" height="40" as="geometry" />
        </mxCell>
        <mxCell id="ghVTSAfvSZ-q4KwoJEbG-42" style="edgeStyle=orthogonalEdgeStyle;rounded=0;orthogonalLoop=1;jettySize=auto;html=1;entryX=1;entryY=0.5;entryDx=0;entryDy=0;shape=link;fillColor=#f8cecc;strokeColor=#b85450;" parent="1" source="ghVTSAfvSZ-q4KwoJEbG-8" target="ghVTSAfvSZ-q4KwoJEbG-28" edge="1">
          <mxGeometry relative="1" as="geometry">
            <Array as="points">
              <mxPoint x="860" y="450" />
              <mxPoint x="860" y="250" />
            </Array>
          </mxGeometry>
        </mxCell>
        <mxCell id="ghVTSAfvSZ-q4KwoJEbG-43" style="edgeStyle=orthogonalEdgeStyle;rounded=0;orthogonalLoop=1;jettySize=auto;html=1;entryX=1;entryY=0.5;entryDx=0;entryDy=0;shape=link;fillColor=#f8cecc;strokeColor=#b85450;" parent="1" source="ghVTSAfvSZ-q4KwoJEbG-8" target="ghVTSAfvSZ-q4KwoJEbG-29" edge="1">
          <mxGeometry relative="1" as="geometry">
            <Array as="points">
              <mxPoint x="850" y="470" />
              <mxPoint x="850" y="420" />
            </Array>
          </mxGeometry>
        </mxCell>
        <mxCell id="ghVTSAfvSZ-q4KwoJEbG-8" value="orders" style="shape=cylinder3;whiteSpace=wrap;html=1;boundedLbl=1;backgroundOutline=1;size=15;" parent="1" vertex="1">
          <mxGeometry x="910" y="430" width="60" height="80" as="geometry" />
        </mxCell>
        <mxCell id="ghVTSAfvSZ-q4KwoJEbG-44" style="edgeStyle=orthogonalEdgeStyle;rounded=0;orthogonalLoop=1;jettySize=auto;html=1;shape=link;fillColor=#dae8fc;strokeColor=#6c8ebf;" parent="1" source="ghVTSAfvSZ-q4KwoJEbG-9" edge="1">
          <mxGeometry relative="1" as="geometry">
            <mxPoint x="675" y="590" as="targetPoint" />
            <Array as="points">
              <mxPoint x="675" y="590" />
            </Array>
          </mxGeometry>
        </mxCell>
        <mxCell id="ghVTSAfvSZ-q4KwoJEbG-45" style="edgeStyle=orthogonalEdgeStyle;rounded=0;orthogonalLoop=1;jettySize=auto;html=1;shape=link;fillColor=#dae8fc;strokeColor=#6c8ebf;" parent="1" source="ghVTSAfvSZ-q4KwoJEbG-9" edge="1">
          <mxGeometry relative="1" as="geometry">
            <mxPoint x="675" y="440" as="targetPoint" />
            <Array as="points">
              <mxPoint x="800" y="580" />
              <mxPoint x="800" y="440" />
            </Array>
          </mxGeometry>
        </mxCell>
        <mxCell id="ghVTSAfvSZ-q4KwoJEbG-46" style="edgeStyle=orthogonalEdgeStyle;rounded=0;orthogonalLoop=1;jettySize=auto;html=1;entryX=0.996;entryY=0.641;entryDx=0;entryDy=0;shape=link;fillColor=#dae8fc;strokeColor=#6c8ebf;entryPerimeter=0;" parent="1" source="ghVTSAfvSZ-q4KwoJEbG-9" target="ghVTSAfvSZ-q4KwoJEbG-28" edge="1">
          <mxGeometry relative="1" as="geometry">
            <Array as="points">
              <mxPoint x="820" y="570" />
              <mxPoint x="820" y="270" />
              <mxPoint x="674" y="270" />
            </Array>
          </mxGeometry>
        </mxCell>
        <mxCell id="ghVTSAfvSZ-q4KwoJEbG-48" style="edgeStyle=orthogonalEdgeStyle;rounded=0;orthogonalLoop=1;jettySize=auto;html=1;entryX=1;entryY=0.25;entryDx=0;entryDy=0;fillColor=#dae8fc;strokeColor=#6c8ebf;" parent="1" source="ghVTSAfvSZ-q4KwoJEbG-9" target="ghVTSAfvSZ-q4KwoJEbG-21" edge="1">
          <mxGeometry relative="1" as="geometry">
            <Array as="points">
              <mxPoint x="788" y="610" />
              <mxPoint x="788" y="760" />
            </Array>
          </mxGeometry>
        </mxCell>
        <mxCell id="ghVTSAfvSZ-q4KwoJEbG-9" value="stocks" style="shape=cylinder3;whiteSpace=wrap;html=1;boundedLbl=1;backgroundOutline=1;size=15;" parent="1" vertex="1">
          <mxGeometry x="910" y="550" width="60" height="80" as="geometry" />
        </mxCell>
        <mxCell id="ghVTSAfvSZ-q4KwoJEbG-50" style="edgeStyle=orthogonalEdgeStyle;rounded=0;orthogonalLoop=1;jettySize=auto;html=1;entryX=1;entryY=0.5;entryDx=0;entryDy=0;fillColor=#ffe6cc;strokeColor=#d79b00;" parent="1" source="ghVTSAfvSZ-q4KwoJEbG-10" target="ghVTSAfvSZ-q4KwoJEbG-25" edge="1">
          <mxGeometry relative="1" as="geometry">
            <Array as="points">
              <mxPoint x="840" y="730" />
              <mxPoint x="840" y="860" />
            </Array>
          </mxGeometry>
        </mxCell>
        <mxCell id="ghVTSAfvSZ-q4KwoJEbG-10" value="saves" style="shape=cylinder3;whiteSpace=wrap;html=1;boundedLbl=1;backgroundOutline=1;size=15;" parent="1" vertex="1">
          <mxGeometry x="910" y="670" width="60" height="80" as="geometry" />
        </mxCell>
        <mxCell id="ghVTSAfvSZ-q4KwoJEbG-11" value="2. orders" style="rounded=0;whiteSpace=wrap;html=1;" parent="1" vertex="1">
          <mxGeometry x="537.5" y="270" width="120" height="40" as="geometry" />
        </mxCell>
        <mxCell id="ghVTSAfvSZ-q4KwoJEbG-14" value="1. new order" style="rounded=0;whiteSpace=wrap;html=1;" parent="1" vertex="1">
          <mxGeometry x="537.5" y="380" width="120" height="40" as="geometry" />
        </mxCell>
        <mxCell id="ghVTSAfvSZ-q4KwoJEbG-15" value="2. orders" style="rounded=0;whiteSpace=wrap;html=1;" parent="1" vertex="1">
          <mxGeometry x="537.5" y="440" width="120" height="40" as="geometry" />
        </mxCell>
        <mxCell id="ghVTSAfvSZ-q4KwoJEbG-17" value="1. add stock" style="rounded=0;whiteSpace=wrap;html=1;" parent="1" vertex="1">
          <mxGeometry x="535" y="540" width="120" height="40" as="geometry" />
        </mxCell>
        <mxCell id="ghVTSAfvSZ-q4KwoJEbG-18" value="2. see stocks" style="rounded=0;whiteSpace=wrap;html=1;" parent="1" vertex="1">
          <mxGeometry x="535" y="600" width="120" height="40" as="geometry" />
        </mxCell>
        <mxCell id="ghVTSAfvSZ-q4KwoJEbG-19" value="3. remove stock" style="rounded=0;whiteSpace=wrap;html=1;" parent="1" vertex="1">
          <mxGeometry x="535" y="660" width="120" height="40" as="geometry" />
        </mxCell>
        <mxCell id="ghVTSAfvSZ-q4KwoJEbG-21" value="ask for save file name" style="rounded=0;whiteSpace=wrap;html=1;" parent="1" vertex="1">
          <mxGeometry x="525" y="750" width="140" height="40" as="geometry" />
        </mxCell>
        <mxCell id="ghVTSAfvSZ-q4KwoJEbG-25" value="get all saved files and ask" style="rounded=0;whiteSpace=wrap;html=1;" parent="1" vertex="1">
          <mxGeometry x="520" y="840" width="150" height="40" as="geometry" />
        </mxCell>
        <mxCell id="ghVTSAfvSZ-q4KwoJEbG-36" value="chef menu" style="text;strokeColor=none;fillColor=none;align=center;verticalAlign=middle;spacingLeft=4;spacingRight=4;overflow=hidden;points=[[0,0.5],[1,0.5]];portConstraint=eastwest;rotatable=0;whiteSpace=wrap;html=1;" parent="1" vertex="1">
          <mxGeometry x="555" y="180" width="80" height="30" as="geometry" />
        </mxCell>
        <mxCell id="ghVTSAfvSZ-q4KwoJEbG-37" value="cashier menu" style="text;strokeColor=none;fillColor=none;align=center;verticalAlign=middle;spacingLeft=4;spacingRight=4;overflow=hidden;points=[[0,0.5],[1,0.5]];portConstraint=eastwest;rotatable=0;whiteSpace=wrap;html=1;" parent="1" vertex="1">
          <mxGeometry x="548.75" y="350" width="100" height="30" as="geometry" />
        </mxCell>
        <mxCell id="ghVTSAfvSZ-q4KwoJEbG-38" value="stock menu" style="text;strokeColor=none;fillColor=none;align=center;verticalAlign=middle;spacingLeft=4;spacingRight=4;overflow=hidden;points=[[0,0.5],[1,0.5]];portConstraint=eastwest;rotatable=0;whiteSpace=wrap;html=1;" parent="1" vertex="1">
          <mxGeometry x="557.5" y="510" width="80" height="30" as="geometry" />
        </mxCell>
        <mxCell id="ghVTSAfvSZ-q4KwoJEbG-41" value="main menu" style="text;strokeColor=none;fillColor=none;align=center;verticalAlign=middle;spacingLeft=4;spacingRight=4;overflow=hidden;points=[[0,0.5],[1,0.5]];portConstraint=eastwest;rotatable=0;whiteSpace=wrap;html=1;" parent="1" vertex="1">
          <mxGeometry x="280" y="195" width="80" height="30" as="geometry" />
        </mxCell>
        <mxCell id="ghVTSAfvSZ-q4KwoJEbG-47" style="edgeStyle=orthogonalEdgeStyle;rounded=0;orthogonalLoop=1;jettySize=auto;html=1;fillColor=#f8cecc;strokeColor=#b85450;" parent="1" source="ghVTSAfvSZ-q4KwoJEbG-8" edge="1">
          <mxGeometry relative="1" as="geometry">
            <mxPoint x="666" y="770" as="targetPoint" />
            <Array as="points">
              <mxPoint x="750" y="490" />
              <mxPoint x="750" y="770" />
              <mxPoint x="666" y="770" />
            </Array>
          </mxGeometry>
        </mxCell>
        <mxCell id="ghVTSAfvSZ-q4KwoJEbG-49" style="edgeStyle=orthogonalEdgeStyle;rounded=0;orthogonalLoop=1;jettySize=auto;html=1;entryX=0;entryY=0.5;entryDx=0;entryDy=0;entryPerimeter=0;fillColor=#d5e8d4;strokeColor=#82b366;" parent="1" source="ghVTSAfvSZ-q4KwoJEbG-21" target="ghVTSAfvSZ-q4KwoJEbG-10" edge="1">
          <mxGeometry relative="1" as="geometry">
            <Array as="points">
              <mxPoint x="810" y="780" />
              <mxPoint x="810" y="710" />
            </Array>
          </mxGeometry>
        </mxCell>
        <mxCell id="uYpwqTLEY6Gg8EtdrETQ-7" style="edgeStyle=orthogonalEdgeStyle;rounded=0;orthogonalLoop=1;jettySize=auto;html=1;" edge="1" parent="1" source="uYpwqTLEY6Gg8EtdrETQ-1" target="ghVTSAfvSZ-q4KwoJEbG-40">
          <mxGeometry relative="1" as="geometry" />
        </mxCell>
        <mxCell id="uYpwqTLEY6Gg8EtdrETQ-1" value="" style="rounded=0;whiteSpace=wrap;html=1;fillColor=#fff2cc;strokeColor=#d6b656;" vertex="1" parent="1">
          <mxGeometry x="10" y="190" width="160" height="350" as="geometry" />
        </mxCell>
        <mxCell id="uYpwqTLEY6Gg8EtdrETQ-2" value="1. Login" style="rounded=0;whiteSpace=wrap;html=1;" vertex="1" parent="1">
          <mxGeometry x="30" y="240" width="120" height="60" as="geometry" />
        </mxCell>
        <mxCell id="uYpwqTLEY6Gg8EtdrETQ-3" value="2. Register" style="rounded=0;whiteSpace=wrap;html=1;" vertex="1" parent="1">
          <mxGeometry x="30" y="350" width="120" height="60" as="geometry" />
        </mxCell>
        <mxCell id="uYpwqTLEY6Gg8EtdrETQ-4" value="0. Exit" style="rounded=0;whiteSpace=wrap;html=1;" vertex="1" parent="1">
          <mxGeometry x="30" y="460" width="120" height="60" as="geometry" />
        </mxCell>
        <mxCell id="uYpwqTLEY6Gg8EtdrETQ-5" value="lobby" style="text;strokeColor=none;fillColor=none;align=center;verticalAlign=middle;spacingLeft=4;spacingRight=4;overflow=hidden;points=[[0,0.5],[1,0.5]];portConstraint=eastwest;rotatable=0;whiteSpace=wrap;html=1;" vertex="1" parent="1">
          <mxGeometry x="50" y="200" width="80" height="30" as="geometry" />
        </mxCell>
        <mxCell id="uYpwqTLEY6Gg8EtdrETQ-8" style="edgeStyle=orthogonalEdgeStyle;rounded=0;orthogonalLoop=1;jettySize=auto;html=1;entryX=1;entryY=0.5;entryDx=0;entryDy=0;entryPerimeter=0;shape=link;fillColor=#f8cecc;strokeColor=#b85450;" edge="1" parent="1" source="ghVTSAfvSZ-q4KwoJEbG-8" target="ghVTSAfvSZ-q4KwoJEbG-10">
          <mxGeometry relative="1" as="geometry">
            <Array as="points">
              <mxPoint x="990" y="470" />
              <mxPoint x="990" y="710" />
            </Array>
          </mxGeometry>
        </mxCell>
        <mxCell id="uYpwqTLEY6Gg8EtdrETQ-9" style="edgeStyle=orthogonalEdgeStyle;rounded=0;orthogonalLoop=1;jettySize=auto;html=1;entryX=1;entryY=0;entryDx=0;entryDy=52.5;entryPerimeter=0;shape=link;fillColor=#dae8fc;strokeColor=#6c8ebf;" edge="1" parent="1" source="ghVTSAfvSZ-q4KwoJEbG-9" target="ghVTSAfvSZ-q4KwoJEbG-10">
          <mxGeometry relative="1" as="geometry">
            <Array as="points">
              <mxPoint x="1010" y="590" />
              <mxPoint x="1010" y="723" />
            </Array>
          </mxGeometry>
        </mxCell>
      </root>
    </mxGraphModel>
  </diagram>
</mxfile>
